<svg version="1.1" id="Layer_1" xmlns="http://www.w3.org/2000/svg" xmlns:xlink="http://www.w3.org/1999/xlink" x="0px" y="0px"
	 width="100%" viewBox="0 0 500 500" enable-background="new 0 0 500 500" xml:space="preserve">
<path fill="#FFFFFF" opacity="1.000000" stroke="none" 
	d="
M450.000000,501.000000 
	C301.500031,501.000000 153.500061,500.983490 5.500176,501.093994 
	C1.751001,501.096802 0.903619,500.249725 0.906112,496.500061 
	C1.014955,332.833496 1.014940,169.166840 0.906175,5.500288 
	C0.903684,1.751445 1.749875,0.903597 5.499835,0.906092 
	C169.166382,1.014958 332.833038,1.014936 496.499603,0.906196 
	C500.248169,0.903706 501.096466,1.749474 501.093964,5.499716 
	C500.985077,169.166275 500.985077,332.832916 501.093781,496.499481 
	C501.096252,500.247742 500.259918,501.163177 496.498810,501.102692 
	C481.169281,500.856110 465.833496,501.000000 450.000000,501.000000 
z"/>
<path fill="#080808" opacity="1.000000" stroke="none" 
	d="
M99.857300,281.777954 
	C99.794464,289.985535 98.402458,291.362213 91.494713,291.227722 
	C86.804466,291.136414 85.055977,288.870728 85.103035,284.352539 
	C85.222588,272.874084 85.113594,261.393433 85.155846,249.913895 
	C85.175064,244.691376 86.752052,243.209122 92.049271,243.146103 
	C97.900894,243.076508 99.548531,244.441864 99.853767,249.615616 
	C99.863548,249.781448 99.851456,249.948471 99.857590,250.114624 
	C100.221710,259.984009 100.221794,259.984070 109.983307,259.984009 
	C117.303703,259.983978 124.625778,259.895416 131.943512,260.035004 
	C134.288925,260.079742 135.271210,259.484192 135.023773,257.015961 
	C134.825623,255.039368 134.975189,253.027008 134.985550,251.030594 
	C135.023026,243.821030 140.097031,240.667252 146.706161,243.653564 
	C148.885681,244.638397 149.512924,246.383575 149.517654,248.481766 
	C149.545822,260.959625 149.560760,273.437683 149.514114,285.915405 
	C149.498627,290.058533 146.840790,291.204285 143.203247,291.207306 
	C139.407440,291.210449 135.542679,291.323456 135.055283,286.184631 
	C134.820633,283.710480 134.755951,281.169952 135.040436,278.708740 
	C135.457565,275.099884 133.996353,274.342896 130.612793,274.454437 
	C122.635574,274.717346 114.643791,274.538483 106.657906,274.538727 
	C99.858810,274.538910 99.858810,274.539185 99.857300,281.777954 
z"/>
<path fill="#030303" opacity="1.000000" stroke="none" 
	d="
M170.520813,245.600815 
	C170.895691,247.744217 171.198868,249.560089 171.145737,251.365494 
	C171.001923,256.252136 169.763535,261.323212 178.051666,260.343079 
	C181.428482,259.943756 183.910095,263.466736 183.768921,267.267273 
	C183.611710,271.499542 180.983429,274.474884 176.842484,274.239868 
	C171.191437,273.919189 170.655472,276.777100 171.159912,281.065674 
	C171.275665,282.049683 171.185577,283.059021 171.175827,284.056549 
	C171.119568,289.810486 169.801041,291.155182 164.202621,291.177521 
	C158.157211,291.201660 156.843719,289.948883 156.829880,283.960510 
	C156.804886,273.152924 156.804993,262.345184 156.834717,251.537628 
	C156.842758,248.611984 156.007065,244.903076 159.648895,243.792709 
	C163.157730,242.722900 167.169266,241.802795 170.520813,245.600815 
z"/>
<path fill="#060606" opacity="1.000000" stroke="none" 
	d="
M69.384033,291.168091 
	C65.234566,291.128815 63.703499,288.932007 63.534012,285.467682 
	C63.461056,283.976501 63.304111,282.455292 63.504002,280.991241 
	C64.113937,276.523804 63.115791,274.008636 57.757343,274.188538 
	C53.495964,274.331635 51.177261,271.323944 51.035351,267.103638 
	C50.902386,263.149200 54.100670,259.725555 58.418381,260.136444 
	C63.346558,260.605438 63.961365,258.377350 63.494682,254.505493 
	C63.336849,253.196060 63.440304,251.850784 63.475204,250.523224 
	C63.637184,244.362274 65.032677,243.053436 71.292587,243.151688 
	C76.756363,243.237442 78.000565,244.579376 78.008011,250.503372 
	C78.021576,261.297241 78.014343,272.091125 78.011009,282.885010 
	C78.008705,290.364441 77.323875,291.049988 69.384033,291.168091 
z"/>
<path fill="#060606" opacity="1.000000" stroke="none" 
	d="
M217.667511,234.031754 
	C222.527100,237.523346 223.420929,240.601639 220.588501,245.129990 
	C219.484955,246.894287 219.465729,247.286758 221.277130,248.268265 
	C224.471130,249.998871 225.162079,253.042374 224.497070,256.414307 
	C223.760284,260.149963 221.154175,262.280640 217.643600,262.705383 
	C213.710785,263.181152 209.689880,262.902069 205.709579,263.025238 
	C204.170792,263.072815 203.721878,262.377228 203.727280,260.953400 
	C203.759384,252.484711 203.755875,244.015793 203.733124,235.547043 
	C203.729019,234.019592 204.043686,232.997559 205.912872,233.113342 
	C209.704025,233.348190 213.562088,232.607941 217.667511,234.031754 
z"/>
<path fill="#080808" opacity="1.000000" stroke="none" 
	d="
M244.978836,235.161072 
	C245.259521,237.889359 244.950546,239.562241 241.969727,239.157257 
	C240.502213,238.957870 238.972992,239.244797 237.493118,239.097046 
	C235.176315,238.865768 234.716537,240.015793 234.753342,242.032410 
	C234.786789,243.865692 234.774277,245.350754 237.295807,245.072021 
	C238.772385,244.908813 240.292023,245.154266 241.774216,245.018433 
	C243.985199,244.815811 244.605377,245.765091 244.634476,247.884354 
	C244.665466,250.143921 244.163620,251.258270 241.625046,251.093536 
	C239.516357,250.956680 237.190948,250.815414 235.317963,251.565765 
	C234.069534,252.065903 234.759476,254.294754 234.883865,255.709534 
	C235.069870,257.825134 236.972504,256.554993 237.994507,257.045197 
	C240.343094,258.171753 245.266861,254.029861 245.043213,260.550354 
	C244.974808,262.544891 244.328217,263.096619 242.448135,263.046997 
	C238.465027,262.941864 234.470779,262.878082 230.493744,263.065552 
	C228.042282,263.181122 227.895950,261.961975 227.912003,260.062408 
	C227.979355,252.091232 228.020020,244.117920 227.892776,236.148209 
	C227.854416,233.745239 228.621658,232.965866 231.008392,233.076553 
	C234.820023,233.253296 238.645798,233.118790 242.465561,233.129044 
	C243.613724,233.132141 244.903442,232.953140 244.978836,235.161072 
z"/>
<path fill="#060606" opacity="1.000000" stroke="none" 
	d="
M275.925659,233.128616 
	C278.514008,234.157211 282.383514,230.628036 282.952271,235.694565 
	C283.224426,238.118942 282.643402,239.501877 279.810791,239.154465 
	C278.173706,238.953674 276.486572,239.202972 274.830780,239.103210 
	C272.224579,238.946167 272.500214,240.711746 272.409698,242.395294 
	C272.313080,244.192413 272.757782,245.234055 274.839203,245.071976 
	C276.490936,244.943344 278.168518,245.151016 279.821075,245.027832 
	C282.618744,244.819290 281.948700,246.796631 282.073517,248.345657 
	C282.211365,250.056717 281.936218,250.939987 279.767853,251.114838 
	C272.566956,251.695404 272.498169,251.825851 272.473480,259.229065 
	C272.465363,261.671722 272.404236,263.191559 269.155304,263.135284 
	C266.212128,263.084351 265.614777,262.123566 265.680542,259.424347 
	C265.854614,252.282471 265.939606,245.125656 265.657898,237.990662 
	C265.509460,234.230362 266.387848,232.420044 270.468781,233.085312 
	C272.087677,233.349213 273.785492,233.128616 275.925659,233.128616 
z"/>
<path fill="#0D0D0D" opacity="1.000000" stroke="none" 
	d="
M313.939758,239.135986 
	C310.078094,238.552963 308.850586,239.845322 309.045959,243.410172 
	C309.345581,248.877411 308.967041,254.379654 309.191071,259.854156 
	C309.302948,262.587799 308.327179,263.195984 305.819641,263.093140 
	C303.584503,263.001495 302.064362,262.997620 302.188995,259.983673 
	C302.422180,254.343475 302.105988,248.681168 302.316956,243.039200 
	C302.425873,240.126419 301.827637,238.569000 298.562012,239.121017 
	C296.134644,239.531326 295.000336,238.771729 295.078186,235.944382 
	C295.151886,233.265610 296.408203,233.047623 298.493713,233.084320 
	C303.311188,233.169144 308.132141,233.059860 312.949463,233.148880 
	C314.080322,233.169754 316.097626,232.340851 316.010406,234.434952 
	C315.944946,236.007858 317.852173,238.637955 313.939758,239.135986 
z"/>
<path fill="#0D0D0D" opacity="1.000000" stroke="none" 
	d="
M292.996002,255.923416 
	C292.936188,258.392578 293.467712,260.671539 292.657349,262.270325 
	C291.771210,264.018677 289.342346,262.922729 287.613251,262.952515 
	C285.483154,262.989197 286.118622,261.156036 286.111633,259.980713 
	C286.065063,252.169464 286.222443,244.354263 286.019409,236.548004 
	C285.940918,233.529373 287.133209,233.069977 289.785950,233.014374 
	C292.565521,232.956131 293.089813,234.038757 293.039337,236.487198 
	C292.909241,242.800232 292.995911,249.117752 292.996002,255.923416 
z"/>
<path fill="#3B3B3B" opacity="1.000000" stroke="none" 
	d="
M254.907806,305.108368 
	C254.063568,308.990387 251.151306,313.583374 258.459320,315.650574 
	C256.645721,315.873657 255.668106,316.048889 254.684021,316.100708 
	C253.529572,316.161469 252.369461,316.114899 250.675293,316.114899 
	C252.402618,313.113434 251.717072,310.115570 251.932022,307.186829 
	C252.074539,305.244965 250.782379,304.093506 249.481598,304.001831 
	C247.976776,303.895752 246.978989,305.285950 247.017471,307.066589 
	C247.067795,309.394592 247.034927,311.724701 247.013412,314.053711 
	C247.006012,314.854675 247.082092,316.009949 245.999451,315.926331 
	C244.370956,315.800598 243.545624,314.364410 242.926575,313.048096 
	C242.682114,312.528259 241.513504,311.255524 242.698151,311.146606 
	C247.790436,310.678467 244.289520,307.318542 244.616196,305.400879 
	C244.740540,304.671051 243.886597,303.177002 245.201004,303.543701 
	C249.376556,304.708679 253.749863,302.270660 258.029083,304.128723 
	C257.240662,305.733795 256.161530,304.852203 254.907806,305.108368 
z"/>
<path fill="#3B3B3B" opacity="1.000000" stroke="none" 
	d="
M211.603821,314.163574 
	C210.139297,317.048462 207.556580,316.696075 205.151306,315.271881 
	C202.442123,313.667786 201.658493,311.012573 202.470016,307.965820 
	C203.248337,305.043793 205.262756,303.513397 208.209656,303.376312 
	C209.478043,303.317322 210.766998,303.865509 212.048615,303.875336 
	C213.122650,303.883606 213.612030,304.355133 213.562119,305.251770 
	C213.463821,307.017395 212.214249,306.271637 211.462265,305.952759 
	C209.201950,304.994354 207.014130,304.347412 205.190948,306.651855 
	C203.837082,308.363129 203.681992,310.273163 204.712051,312.217499 
	C206.212753,315.050323 208.849945,314.304108 211.603821,314.163574 
z"/>
<path fill="#5A5A5A" opacity="1.000000" stroke="none" 
	d="
M239.687683,291.028778 
	C238.074814,288.876282 236.305176,287.578217 233.200577,287.787292 
	C231.949280,287.871582 230.124878,285.578644 231.500504,283.757141 
	C232.587662,282.317627 230.144073,279.672058 233.058197,279.348419 
	C235.511841,279.075897 235.822296,281.226624 236.122757,283.024017 
	C236.619644,285.996582 236.707382,289.133759 239.687683,291.028778 
z"/>
<path fill="#0D0D0D" opacity="1.000000" stroke="none" 
	d="
M284.120331,280.463837 
	C278.342651,282.078278 281.111908,286.842804 281.636566,289.192749 
	C282.517883,293.140320 280.765625,291.983765 278.509949,291.857452 
	C280.552429,289.048523 279.696960,286.083527 279.833069,283.241486 
	C279.955353,280.688721 278.654358,280.308716 276.785431,281.606873 
	C276.089050,282.090576 275.728943,283.676422 275.113617,281.704773 
	C274.808716,280.727875 274.978790,279.646423 276.441132,279.634491 
	C278.605652,279.616821 280.770477,279.630859 283.341583,279.729828 
	C283.909882,279.947083 284.071747,280.065918 284.120331,280.463837 
z"/>
<path fill="#0D0D0D" opacity="1.000000" stroke="none" 
	d="
M265.116821,279.748108 
	C259.461212,281.192291 261.755829,286.225922 262.369141,289.080780 
	C263.259491,293.224915 261.415497,291.942413 258.912476,291.944153 
	C261.184021,289.334015 260.466125,286.674347 260.563782,284.141968 
	C260.621033,282.658478 260.865417,280.832031 259.543152,280.004486 
	C258.051483,279.070923 257.616272,281.700012 255.352936,281.805939 
	C258.508209,278.581665 261.864075,279.991760 265.116821,279.748108 
z"/>
<path fill="#191919" opacity="1.000000" stroke="none" 
	d="
M222.130768,311.225525 
	C216.428589,311.286652 219.680313,313.713989 220.664627,315.592010 
	C219.273056,316.474182 217.884094,315.836060 216.352249,315.988922 
	C218.090790,311.807678 218.307175,308.016479 216.383408,303.925903 
	C219.374451,303.600800 222.356201,302.491333 224.961411,305.542175 
	C224.916550,305.999817 224.775162,306.176025 224.317932,306.471313 
	C222.989563,306.868896 221.499283,306.049377 221.001678,307.333618 
	C220.445984,308.767761 222.212677,308.893433 223.052063,309.958069 
	C223.137924,310.728210 222.873627,311.080811 222.130768,311.225525 
z"/>
<path fill="#3B3B3B" opacity="1.000000" stroke="none" 
	d="
M241.158142,307.720978 
	C241.236191,308.133820 241.256363,308.303986 241.344986,308.423309 
	C241.379395,308.469666 241.568359,308.401245 241.686920,308.385071 
	C237.778549,308.537659 239.204132,311.462646 239.130341,313.494965 
	C239.094543,314.480560 240.292557,315.870392 238.306442,315.975494 
	C236.278122,316.082794 236.821381,314.772461 237.016876,313.406708 
	C237.295471,311.460236 236.511215,309.157990 237.289780,307.541870 
	C238.131378,305.794830 234.245056,304.394196 237.020660,303.580048 
	C239.600067,302.823395 240.565430,305.271301 241.158142,307.720978 
z"/>
<path fill="#191919" opacity="1.000000" stroke="none" 
	d="
M231.739166,303.548828 
	C233.705154,305.809235 231.417542,308.013702 232.057266,310.341644 
	C232.508072,311.982117 231.659897,313.958252 233.082352,315.648834 
	C231.688400,315.402863 228.310379,318.219116 230.384705,312.906525 
	C231.234100,310.731110 231.441452,307.538696 229.730865,304.852600 
	C228.759140,303.326660 230.634933,303.789764 231.739166,303.548828 
z"/>
<path fill="#191919" opacity="1.000000" stroke="none" 
	d="
M291.833618,285.438416 
	C294.055695,284.151642 300.288422,287.610901 296.852844,280.452179 
	C296.369537,279.445038 299.076416,279.581421 300.461151,279.957458 
	C298.672363,283.381927 299.050110,286.841431 299.839905,290.299744 
	C299.957489,290.814514 301.045197,291.307495 300.267609,291.800232 
	C299.655640,292.187988 298.665985,291.979706 297.443542,291.965210 
	C296.930389,291.742157 296.817841,291.590027 296.832581,291.184174 
	C298.288300,286.576874 298.288300,286.576874 292.330872,286.356140 
	C291.868988,286.076508 291.774170,285.892334 291.833618,285.438416 
z"/>
<path fill="#191919" opacity="1.000000" stroke="none" 
	d="
M250.826477,285.745300 
	C250.151825,287.493896 252.012283,289.205566 250.641495,290.679688 
	C249.610275,290.636292 250.082214,289.705933 249.819016,289.223816 
	C249.176025,288.046051 248.599899,286.685303 246.925629,287.101501 
	C245.185577,287.534119 245.948044,289.012115 246.165634,289.963226 
	C246.443909,291.179688 246.423721,291.989441 244.999084,291.868896 
	C243.903076,291.776184 244.043823,290.841370 244.066238,289.977142 
	C244.149323,286.773499 244.892822,283.517059 243.303177,280.020386 
	C245.977356,280.330902 248.506104,279.191467 251.280884,280.593445 
	C251.366791,281.047302 251.232147,281.235352 250.802994,281.603455 
	C249.070343,282.431976 246.099335,282.529541 249.710770,285.004639 
	C250.220764,285.246735 250.415726,285.363861 250.826477,285.745300 
z"/>
<path fill="#3B3B3B" opacity="1.000000" stroke="none" 
	d="
M206.040665,281.209106 
	C203.983231,281.986053 205.736099,284.233063 203.880112,285.040741 
	C202.237442,283.805389 202.334091,282.229095 203.389740,280.850464 
	C205.391052,278.236847 208.280441,279.661560 210.705917,279.832062 
	C212.503433,279.958435 211.748596,281.796844 211.526260,283.194550 
	C209.782715,282.422333 208.491837,280.719849 206.040665,281.209106 
z"/>
<path fill="#060606" opacity="1.000000" stroke="none" 
	d="
M311.599060,290.774231 
	C309.112061,293.156860 306.256073,291.519043 303.050964,292.048920 
	C305.608673,288.491150 304.422516,285.021637 304.318420,281.328583 
	C303.909088,280.782715 303.787384,280.613464 303.773773,280.150787 
	C304.346252,279.779877 304.810638,279.702393 305.627502,279.673401 
	C306.396301,280.164551 306.547119,280.684296 306.228546,281.655701 
	C306.044922,283.639374 306.245605,285.271088 306.047241,286.852722 
	C305.650848,290.013336 306.834137,291.346252 310.428101,290.816010 
	C311.043945,290.714050 311.245728,290.578186 311.599060,290.774231 
z"/>
<path fill="#191919" opacity="1.000000" stroke="none" 
	d="
M218.395660,279.538300 
	C220.617523,279.551239 222.450562,279.444855 224.256042,279.621033 
	C225.472076,279.739716 225.912109,280.831757 225.443268,281.843262 
	C224.539337,283.793518 224.368011,281.849701 223.733368,281.525299 
	C221.582977,280.426208 219.104950,282.612579 216.927444,281.022949 
	C215.828430,280.220642 215.944122,284.906799 214.772156,281.669159 
	C213.813919,279.021912 216.518631,279.716339 218.395660,279.538300 
z"/>
<path fill="#0D0D0D" opacity="1.000000" stroke="none" 
	d="
M291.765289,284.926453 
	C291.958099,285.410706 291.937531,285.653473 291.945007,286.078827 
	C291.759949,287.205109 291.069366,288.441345 291.431976,289.046234 
	C293.644104,292.736298 291.363190,292.267975 288.831543,291.826782 
	C290.536682,288.955597 289.513763,285.793823 290.005310,282.814484 
	C290.179230,281.760376 288.218842,280.904053 289.872955,280.039795 
	C290.403900,279.762421 291.371124,279.574158 291.736816,279.859741 
	C293.083099,280.911255 290.632965,281.576904 291.301178,282.763000 
	C291.594452,283.283508 291.474792,284.036652 291.765289,284.926453 
z"/>
<path fill="#191919" opacity="1.000000" stroke="none" 
	d="
M205.831940,290.697205 
	C207.688507,290.782715 209.480835,291.098511 210.030228,288.912842 
	C210.517609,286.973816 208.155350,287.343262 207.014557,286.254364 
	C209.768723,285.308899 211.825607,285.731842 212.013153,288.472046 
	C212.254562,291.999146 209.523041,292.185669 206.465118,291.934479 
	C205.928741,291.586731 205.789352,291.336548 205.831940,290.697205 
z"/>
<path fill="#3B3B3B" opacity="1.000000" stroke="none" 
	d="
M221.951385,311.458496 
	C222.106323,310.816162 222.416473,310.513092 222.818863,309.886841 
	C222.577774,308.336456 222.847000,307.242188 223.947739,306.095551 
	C224.411163,305.792480 224.591415,305.718353 224.927338,305.764465 
	C226.190445,306.401581 226.306778,307.793671 225.744598,308.272034 
	C223.465469,310.211334 224.775635,312.522888 225.090866,314.912994 
	C222.886124,314.608704 223.073669,312.679413 221.951385,311.458496 
z"/>
<path fill="#3B3B3B" opacity="1.000000" stroke="none" 
	d="
M212.109436,314.098541 
	C212.927444,311.394928 209.607483,312.340363 208.942245,310.792297 
	C213.531113,309.820496 213.531113,309.820496 213.831512,314.516632 
	C213.132614,315.341217 212.748306,314.959442 212.213440,314.262146 
	C212.032883,314.041687 212.087555,314.075134 212.109436,314.098541 
z"/>
<path fill="#5A5A5A" opacity="1.000000" stroke="none" 
	d="
M306.225403,281.714661 
	C306.051849,281.519592 306.079010,281.008911 306.043060,280.110046 
	C308.162354,279.592896 311.525330,277.643036 311.967133,280.721313 
	C312.217957,282.468658 308.251343,280.007263 306.225403,281.714661 
z"/>
<path fill="#5A5A5A" opacity="1.000000" stroke="none" 
	d="
M205.795624,290.108582 
	C206.046371,290.562042 206.078827,290.816010 206.089706,291.453430 
	C205.754471,291.768585 205.382462,291.785248 205.137497,291.616974 
	C204.180756,290.959778 201.959930,293.385986 202.018570,290.361786 
	C202.036545,289.434296 201.560043,288.082489 202.723373,287.739288 
	C204.359711,287.256561 204.332443,289.533295 205.795624,290.108582 
z"/>
<path fill="#3B3B3B" opacity="1.000000" stroke="none" 
	d="
M249.724625,281.407623 
	C250.112946,281.042664 250.388458,280.990540 251.082703,280.898834 
	C253.346222,282.465698 252.824326,284.157288 251.361938,285.940369 
	C250.789627,285.984253 250.537033,285.958954 249.924988,285.807953 
	C249.386276,284.359375 249.591187,283.041016 249.724625,281.407623 
z"/>
<path fill="#F1F1F1" opacity="1.000000" stroke="none" 
	d="
M261.884308,312.061188 
	C261.146423,313.391144 260.325439,314.289062 259.029968,313.778900 
	C258.128174,313.423737 258.689423,312.517273 259.049591,312.152771 
	C259.850739,311.341980 260.668884,309.363953 261.884308,312.061188 
z"/>
<path fill="#F1F1F1" opacity="1.000000" stroke="none" 
	d="
M261.338745,308.572571 
	C259.488739,308.980194 258.955292,308.135040 259.051819,306.727539 
	C259.099854,306.026947 259.495758,305.202667 260.198364,305.509491 
	C261.307709,305.993927 261.849579,307.056274 261.338745,308.572571 
z"/>
<path fill="#5A5A5A" opacity="1.000000" stroke="none" 
	d="
M284.088440,281.057556 
	C283.802856,280.597748 283.670380,280.403595 283.678802,279.994354 
	C284.785278,279.041412 285.539948,279.199585 285.664032,280.563995 
	C285.725128,281.235596 286.129517,282.270020 284.914612,282.407776 
	C284.708130,282.431213 284.420135,281.735596 284.088440,281.057556 
z"/>
<path fill="#191919" opacity="1.000000" stroke="none" 
	d="
M219.305206,289.881592 
	C219.838257,289.037506 220.420441,288.550110 220.803223,289.489624 
	C221.128052,290.286865 221.983688,291.250885 220.292587,291.856750 
	C219.627457,291.387756 219.374680,290.887939 219.305206,289.881592 
z"/>
<path fill="#3B3B3B" opacity="1.000000" stroke="none" 
	d="
M219.172058,289.638397 
	C219.545975,289.960846 219.759018,290.467712 220.004440,291.391449 
	C218.033630,292.004669 218.539078,290.905151 219.172058,289.638397 
z"/>
<path fill="#5A5A5A" opacity="1.000000" stroke="none" 
	d="
M311.698456,290.870728 
	C311.750580,291.106140 311.256012,291.121155 311.049072,290.985535 
	C311.192352,290.329742 311.542542,289.809570 311.892761,289.289429 
	C311.810638,289.738068 311.728485,290.186676 311.698456,290.870728 
z"/>
<path fill="#5A5A5A" opacity="1.000000" stroke="none" 
	d="
M212.000244,314.056396 
	C212.471024,314.246338 212.909180,314.450989 213.559235,314.786316 
	C213.263321,316.593567 212.567429,315.863403 211.906631,314.570801 
	C211.947006,314.075775 211.967621,314.071106 212.000244,314.056396 
z"/>
<path fill="#5A5A5A" opacity="1.000000" stroke="none" 
	d="
M303.580505,279.887756 
	C303.923767,280.037476 303.965607,280.217590 304.019104,280.674805 
	C303.303284,280.954102 302.906281,280.715973 303.580505,279.887756 
z"/>
<path fill="#5A5A5A" opacity="1.000000" stroke="none" 
	d="
M296.677155,290.972595 
	C296.959930,290.930481 296.982269,291.414032 297.012634,291.654144 
	C296.406921,291.910706 295.910828,291.823944 296.677155,290.972595 
z"/>
<path fill="#191919" opacity="1.000000" stroke="none" 
	d="
M206.492279,284.506531 
	C206.491470,284.486908 206.493103,284.526123 206.492279,284.506531 
z"/>
<path fill="#F1F1F1" opacity="1.000000" stroke="none" 
	d="
M210.409103,252.295380 
	C212.479691,249.829544 214.605026,250.649918 216.504471,251.955978 
	C217.644409,252.739807 217.810272,254.168045 217.267700,255.524368 
	C216.445190,257.580475 214.576080,257.835846 212.784866,257.813446 
	C208.681732,257.762115 210.992783,254.514755 210.409103,252.295380 
z"/>
<path fill="#F1F1F1" opacity="1.000000" stroke="none" 
	d="
M210.375412,242.023102 
	C210.575806,240.355072 209.716339,238.350128 212.260635,238.580536 
	C213.799103,238.719849 215.176483,239.280411 215.400604,241.118576 
	C215.638306,243.068314 214.658234,244.213715 212.864227,244.739609 
	C210.737381,245.363068 210.257599,244.188049 210.375412,242.023102 
z"/>
<path fill="#F1F1F1" opacity="1.000000" stroke="none" 
	d="
M223.889694,305.755676 
	C223.728821,306.899780 224.424026,308.234650 223.121826,309.301514 
	C221.611694,309.492859 219.852921,310.785400 219.238129,308.654419 
	C218.949722,307.654724 218.918335,306.035400 219.513138,305.444824 
	C220.607468,304.358246 222.191910,304.872284 223.889694,305.755676 
z"/>
<path fill="#F1F1F1" opacity="1.000000" stroke="none" 
	d="
M249.419586,281.060181 
	C250.756744,282.416656 251.685623,283.738342 249.745575,285.400574 
	C248.023621,285.589539 245.982391,286.777863 245.871994,283.633789 
	C245.780823,281.037537 246.885284,280.606598 249.419586,281.060181 
z"/>
</svg>